<?xml version="1.0" encoding="UTF-8" standalone="no"?>
<svg xmlns="http://www.w3.org/2000/svg" width="146" height="45" version="1.1">
  <title>CBOR.js Logotype</title>
  <defs>
    <filter id="shadow">
      <feDropShadow dx="1" dy="1" stdDeviation="1" flood-opacity="0.5"/>
    </filter>
  </defs>
  <g filter="url(#shadow)">
  <g fill="#E1E3FD" stroke="#5D5DFF" stroke-width="1.5">
    <path d="m 24.458333,23.08073 q -0.527343,4.511719 -3.339843,6.972657 -2.792969,2.441406 -7.441407,2.441406 -5.0390622,0 -8.0859372,-3.613281 Q 2.5638021,25.26823 2.5638021,19.213543 v -2.734375 q 0,-3.964844 1.40625,-6.9726563 1.4257812,-3.0078125 4.0234375,-4.609375 2.5976564,-1.6210938 6.0156254,-1.6210938 4.53125,0 7.265625,2.5390625 2.734375,2.5195313 3.183593,6.9921876 H 20.688802 Q 20.200521,9.4088554 18.559896,7.8854179 16.938802,6.3619804 14.009115,6.3619804 q -3.59375,0 -5.6445317,2.65625 -2.03125,2.6562496 -2.03125,7.5585936 v 2.753906 q 0,4.628907 1.9335938,7.363282 1.9335939,2.734375 5.4101559,2.734375 3.125,0 4.785157,-1.40625 1.679687,-1.425782 2.226562,-4.941407 z"/>
    <path d="M 29.575521,32.104168 V 3.6666679 h 9.296875 q 4.628906,0 6.953125,1.9140625 2.34375,1.9140625 2.34375,5.6640626 0,1.992187 -1.132813,3.535156 -1.132812,1.523438 -3.085937,2.363281 2.304687,0.644532 3.632812,2.460938 1.347657,1.796875 1.347657,4.296875 0,3.828125 -2.480469,6.015625 -2.480469,2.1875 -7.011719,2.1875 z m 3.75,-13.300781 v 10.234375 h 6.191406 q 2.617188,0 4.121094,-1.347657 1.523437,-1.367187 1.523437,-3.75 0,-5.136718 -5.585937,-5.136718 z m 0,-3.007813 h 5.664062 q 2.460938,0 3.925782,-1.230469 1.484375,-1.230468 1.484375,-3.339843 0,-2.3437503 -1.367188,-3.3984378 -1.367187,-1.0742188 -4.160156,-1.0742188 h -5.546875 z"/>
    <path d="m 76.352865,18.803387 q 0,4.179687 -1.40625,7.304687 -1.40625,3.105469 -3.984375,4.746094 -2.578125,1.640625 -6.015625,1.640625 -3.359375,0 -5.957032,-1.640625 -2.597656,-1.660156 -4.042968,-4.707031 -1.425782,-3.066407 -1.464844,-7.089844 v -2.050781 q 0,-4.101563 1.425781,-7.2460941 1.425781,-3.1445312 4.023438,-4.8046875 2.617187,-1.6796875 5.976562,-1.6796875 3.417969,0 6.015625,1.6601563 2.617188,1.640625 4.023438,4.7851562 1.40625,3.1249996 1.40625,7.2851566 z m -3.730469,-1.835938 q 0,-5.058594 -2.03125,-7.7539061 -2.03125,-2.7148437 -5.683594,-2.7148437 -3.554687,0 -5.605469,2.7148437 -2.03125,2.6953121 -2.089843,7.5000001 v 2.089844 q 0,4.902343 2.050781,7.714843 2.070312,2.792969 5.683594,2.792969 3.632812,0 5.625,-2.636719 1.992187,-2.65625 2.050781,-7.597656 z"/>
    <path d="M 92.407552,20.600262 H 85.727865 V 32.104168 H 81.958333 V 3.6666679 h 9.414063 q 4.804687,0 7.382812,2.1875 2.597652,2.1875 2.597652,6.3671871 0,2.65625 -1.445308,4.628907 -1.425781,1.972656 -3.984375,2.949218 l 6.679683,12.070313 v 0.234375 h -4.023433 z m -6.679687,-3.066407 h 5.761718 q 2.792969,0 4.433594,-1.445312 1.660156,-1.445313 1.660156,-3.867188 0,-2.6367183 -1.582031,-4.0429683 -1.5625,-1.40625 -4.53125,-1.4257813 h -5.742187 z"/>
  </g>
  <g fill="#fffadc" stroke="red" stroke-width="1.5">
    <path d="m 106.11849,30.209637 q 0,-0.9375 0.54687,-1.5625 0.56641,-0.625 1.67969,-0.625 1.11328,0 1.67969,0.625 0.58594,0.625 0.58594,1.5625 0,0.898437 -0.58594,1.503906 -0.56641,0.605469 -1.67969,0.605469 -1.11328,0 -1.67969,-0.605469 -0.54687,-0.605469 -0.54687,-1.503906 z"/>
  </g>
  <g fill="#dcf8db" stroke="#35a152" stroke-width="1.5">
    <path d="m 120.29818,10.971355 v 23.574219 q 0,6.09375 -5.52735,6.09375 -1.1914,0 -2.20703,-0.351562 v -2.890625 q 0.625,0.15625 1.64063,0.15625 1.21093,0 1.83593,-0.664063 0.64454,-0.644531 0.64454,-2.265625 V 10.971355 Z M 116.3138,5.3658867 q 0,-0.859375 0.52735,-1.4648438 0.54687,-0.625 1.58203,-0.625 1.05468,0 1.60156,0.6054688 0.54687,0.6054687 0.54687,1.484375 0,0.8789062 -0.54687,1.4648437 -0.54688,0.5859375 -1.60156,0.5859375 -1.05469,0 -1.58203,-0.5859375 -0.52735,-0.5859375 -0.52735,-1.4648437 z"/>
    <path d="m 138.42318,26.498699 q 0,-1.464844 -1.11328,-2.265625 -1.09375,-0.820312 -3.84766,-1.40625 -2.73438,-0.585937 -4.35547,-1.40625 -1.60156,-0.820312 -2.38281,-1.953125 -0.76172,-1.132812 -0.76172,-2.695312 0,-2.597657 2.1875,-4.394532 2.20703,-1.796875 5.625,-1.796875 3.59375,0 5.82031,1.855469 2.2461,1.855469 2.2461,4.746094 h -3.63282 q 0,-1.484375 -1.26953,-2.558594 -1.25,-1.074219 -3.16406,-1.074219 -1.97266,0 -3.08594,0.859375 -1.11328,0.859375 -1.11328,2.246094 0,1.308594 1.03516,1.972656 1.03515,0.664063 3.73047,1.269532 2.71484,0.605468 4.39453,1.445312 1.67968,0.839844 2.48047,2.03125 0.82031,1.171875 0.82031,2.871094 0,2.832031 -2.26563,4.550781 -2.26562,1.699219 -5.8789,1.699219 -2.53907,0 -4.49219,-0.898438 -1.95313,-0.898437 -3.06641,-2.5 -1.09375,-1.621093 -1.09375,-3.496093 h 3.61328 q 0.0977,1.816406 1.44532,2.890625 1.36718,1.054687 3.59375,1.054687 2.05078,0 3.28125,-0.820312 1.25,-0.839844 1.25,-2.226563 z"/>
  </g>
  </g>
</svg>
